# xmcd
#
# Track frame offsets:
#	150
#	12636
#	25994
#	40647
#	54896
#	70932
#	85838
#	103901
#	121572
#	142801
#
# Disc length: 2057 seconds
#
# Revision: 1
# Processed by: cddbd v1.5.2PL0 Copyright (c) Steve Scherf et al.
# Submitted via: audiograbber 1.83.01
#
DISCID=7708070a
DTITLE=Thomas B. J. - B. J. Thomas
DYEAR=2005
DGENRE=Country
TTITLE0=hooked on a feeling
TTITLE1=raindrops keep fallin´ on my head
TTITLE2=i just can´t help believing
TTITLE3=i´m so lonesome i could cry
TTITLE4=another somebody done somebody wrong song
TTITLE5=no love at all
TTITLE6=rock and roll lullaby
TTITLE7=back against the wall
TTITLE8=no other baby
TTITLE9=to be loved
EXTD=
EXTT0=
EXTT1=
EXTT2=
EXTT3=
EXTT4=
EXTT5=
EXTT6=
EXTT7=
EXTT8=
EXTT9=
PLAYORDER=
